<svg xmlns="http://www.w3.org/2000/svg" version="1.0" width="981.000000" height="494.000000" preserveAspectRatio="xMidYMid meet"><rect id="backgroundrect" width="100%" height="100%" x="0" y="0" fill="none" stroke="none"/>
<metadata>
Created by potrace 1.16, written by Peter Selinger 2001-2019
</metadata>

<g class="currentLayer" style=""><title>Layer 1</title><g transform="translate(0,494) scale(0.10000000149011612,-0.10000000149011612) " fill="#001829" stroke="none" id="svg_1" class="selected" fill-opacity="1">
<path d="M0 3363 c0 -1525 3 -1703 29 -1703 4 0 13 -25 20 -55 7 -30 16 -53 20 -50 5 2 13 -14 20 -35 6 -22 16 -40 21 -40 5 0 11 -8 15 -19 3 -10 13 -28 23 -39 9 -12 33 -40 52 -63 31 -38 121 -128 160 -162 8 -7 35 -26 60 -42 25 -17 51 -36 58 -42 7 -7 20 -13 27 -13 7 0 20 -6 28 -14 8 -8 33 -19 55 -26 23 -6 42 -14 42 -19 0 -4 33 -14 73 -21 39 -8 75 -18 79 -24 5 -8 471 -12 1553 -14 l1545 -3 0 -489 0 -490 530 0 530 0 0 980 0 980 1935 0 1935 0 0 -980 0 -980 500 0 500 0 0 1485 0 1485 -2965 0 -2965 0 0 -485 0 -485 -1238 0 c-1207 0 -1352 3 -1352 31 0 4 -13 10 -29 14 -15 3 -38 14 -51 23 -37 28 -120 108 -120 116 0 4 -11 22 -25 40 -14 18 -25 40 -25 49 0 8 -4 17 -10 19 -25 8 -30 139 -30 874 l0 764 3973 0 c2267 0 3977 4 3983 9 5 5 45 14 88 20 44 6 84 15 90 20 6 5 31 14 56 21 25 7 47 15 50 19 3 3 34 21 70 40 35 19 69 38 75 42 61 49 138 113 157 132 69 69 170 212 189 267 6 16 14 30 18 30 4 0 13 24 21 53 7 28 18 55 23 59 6 4 13 67 15 152 l5 146 -4907 0 -4906 0 0 -1577z" id="svg_2" fill="#001829"/>
</g></g></svg>